<svg xmlns="http://www.w3.org/2000/svg" viewBox="0 0 32 40" x="0px" y="0px"><title>home, homepage</title><g data-name="Layer 2"><path d="M28.74,10.405l-11-7.85a2.972,2.972,0,0,0-3.48,0l-11,7.85A3,3,0,0,0,2,12.845v14.16a3,3,0,0,0,3,3H27a3,3,0,0,0,3-3V12.845A3,3,0,0,0,28.74,10.405ZM24.5,25.755H7.5a1,1,0,1,1,0-2h17a1,1,0,0,1,0,2Z"/></g><text x="0" y="47" fill="#000000" font-size="5px" font-weight="bold" font-family="'Helvetica Neue', Helvetica, Arial-Unicode, Arial, Sans-serif">Created by Kiki Rizky</text><text x="0" y="52" fill="#000000" font-size="5px" font-weight="bold" font-family="'Helvetica Neue', Helvetica, Arial-Unicode, Arial, Sans-serif">from the Noun Project</text></svg>